<svg xmlns="http://www.w3.org/2000/svg" xmlns:xlink="http://www.w3.org/1999/xlink" width="343.523" height="52.92" viewBox="0 0 343.523 52.92">
  <defs>
    <clipPath id="clip-path">
      <rect id="Rectangle_80" data-name="Rectangle 80" width="343.523" height="52.92" fill="none"/>
    </clipPath>
  </defs>
  <g id="Group_105" data-name="Group 105" transform="translate(0 0)">
    <g id="Group_104" data-name="Group 104" transform="translate(0 0)" clip-path="url(#clip-path)">
      <path id="Path_152" data-name="Path 152" d="M6.26,12.511,3.705,22.9a5.782,5.782,0,0,0-.256,1.577A1.386,1.386,0,0,0,4.9,25.926c.978,0,2-.512,3.788-1.7L9.792,25.8c-2.211,1.786-4,2.594-5.7,2.594A3.435,3.435,0,0,1,.339,24.944,7.738,7.738,0,0,1,.682,22.9l2.55-10.391H0l.639-2.6H3.875L4.939,5.656l3.28-1.064L6.9,9.914h5.534l-.639,2.6Z" transform="translate(0 13.51)" fill="#4d4d4f"/>
      <path id="Path_153" data-name="Path 153" d="M9.714,5.19H6.265L6.9,2.636h6.346L9.328,19.413c1.364-2.085,3.493-4.044,6.051-4.044a4.913,4.913,0,0,1,5.148,4.939,10.049,10.049,0,0,1-.465,2.854l-1.577,5.877a6.62,6.62,0,0,0-.256,1.573,1.223,1.223,0,0,0,1.238,1.364c.848,0,1.573-.725,2.381-2.854l1.494.512c-.9,2.937-2.345,4.47-4.474,4.47a3.314,3.314,0,0,1-3.619-3.362,9.361,9.361,0,0,1,.3-2l1.624-5.964a8.133,8.133,0,0,0,.3-2.129,2.8,2.8,0,0,0-3.023-2.728c-2.472,0-5.239,2.3-6.264,6.642L6.048,33.809H3.068Z" transform="translate(9.026 7.756)" fill="#4d4d4f"/>
      <path id="Path_154" data-name="Path 154" d="M11.6,16.16a6.158,6.158,0,0,0-.043.895c0,3.193,2.641,5.069,5.791,5.069a11.8,11.8,0,0,0,6-1.663l-.639,2.9a12.221,12.221,0,0,1-5.964,1.317c-4.257,0-8.128-2.724-8.128-7.663,0-6.134,4.64-11.156,10.048-11.156,4.214,0,6.942,2.554,6.942,6.642a11,11,0,0,1-.682,3.662Zm.469-2.3H22.5a5.111,5.111,0,0,0,.3-1.79c0-1.959-1.321-3.619-4.257-3.619-2.854,0-5.408,2.255-6.473,5.408" transform="translate(25.368 17.229)" fill="#4d4d4f"/>
      <path id="Path_155" data-name="Path 155" d="M16.228,34.679h4.486l6.93-29.864H22.587l.851-3.749H50.129l-2.16,9.141H43.881L45.19,4.755H31.846L28.72,18.272h11.7l-.851,3.634h-11.7L24.916,34.679h5.511l-.911,3.749H15.322Z" transform="translate(45.076 3.136)" fill="#4d4d4f"/>
      <path id="Path_156" data-name="Path 156" d="M49.583,16.919a7.7,7.7,0,0,1,7.663,5.85L61.788,3.406h-4.6L58.039,0h8.518L58.382,34.977a10.459,10.459,0,0,0-.453,2.381c0,1.143.568,1.766,1.589,1.766,1.135,0,2.156-.966,3.292-3.8L64.8,36c-1.3,4.088-3.516,5.96-6.13,5.96a4.2,4.2,0,0,1-4.431-4.541,1.6,1.6,0,0,1,0-.512c-2.042,2.842-4.994,5.113-8.629,5.113-5,0-8.688-3.8-8.688-9.823,0-8.463,5.905-15.275,12.665-15.275m6.7,10.166c0-3.977-2.215-6.646-6.244-6.646-5.227,0-8.917,5.566-8.917,11.416,0,3.973,2.1,6.7,5.85,6.7,5.452,0,9.311-5.905,9.311-11.467" transform="translate(108.61 0.001)" fill="#4d4d4f"/>
      <path id="Path_157" data-name="Path 157" d="M45.072,23.15c0-11.924,9.6-22.256,21.121-22.256,8.743,0,13.4,5.448,13.4,9.137,0,2.5-1.593,4.147-3.406,4.147a2.826,2.826,0,0,1-3.012-2.838,3.216,3.216,0,0,1,1.648-2.673c-.623-1.758-3.634-3.973-8.8-3.973-9.654,0-16.58,9.2-16.58,18.054,0,8.179,4.829,13,12.039,13,4.427,0,8.29-1.872,11.7-5.223l2.5,2.613a19.826,19.826,0,0,1-14.593,6.473c-8.743,0-16.012-5.964-16.012-16.465" transform="translate(132.598 2.631)" fill="#4d4d4f"/>
      <path id="Path_158" data-name="Path 158" d="M52.133,37.057a2.786,2.786,0,0,1,2.724-2.838,2.67,2.67,0,0,1,2.669,2.5h.11c1.364,0,4.092-2.042,9.256-8.29L62.749,8.214H58.436l.848-3.465h6.985l3.52,20.218c4.2-5.452,8.18-11.077,9.031-14.711a3.258,3.258,0,0,1-2.33-3.063,2.922,2.922,0,0,1,2.952-2.9c1.932,0,3.3,1.423,3.3,3.922,0,3.749-2.783,9.031-11.7,20.214-7.951,9.878-11.526,11.865-15.1,11.865a3.535,3.535,0,0,1-3.8-3.236" transform="translate(153.371 12.628)" fill="#4d4d4f"/>
      <path id="Path_159" data-name="Path 159" d="M60.4,18.944c0-7.663,6.244-14.652,13.856-14.652C79.934,4.292,83,7.757,83,10.769a3.165,3.165,0,0,1-3.008,3.406,2.413,2.413,0,0,1-2.44-2.554,2.631,2.631,0,0,1,1.135-2.046c-.851-1.135-2.33-1.817-4.545-1.817-4.994,0-9.709,4.77-9.709,10.959,0,4.316,2.838,7.21,7.328,7.21a12.613,12.613,0,0,0,8.061-3.177l-.114,3.859a13.939,13.939,0,0,1-8.4,2.783c-6.134,0-10.9-3.918-10.9-10.446" transform="translate(177.698 12.628)" fill="#4d4d4f"/>
      <path id="Path_160" data-name="Path 160" d="M66.9,37.417a11.216,11.216,0,0,1,.4-2.5L74.621,3.406H70.08L70.928,0h8.463l-8.12,34.918a18.086,18.086,0,0,0-.394,2.389c0,1.19.623,1.817,1.585,1.817,1.194,0,2.219-.97,3.355-3.8L77.8,36c-1.3,4.088-3.41,5.96-6.193,5.96A4.338,4.338,0,0,1,66.9,37.417" transform="translate(196.812 0.001)" fill="#4d4d4f"/>
      <path id="Path_161" data-name="Path 161" d="M74.3,18.034a8.656,8.656,0,0,0-.055,1.194c0,4.257,3.52,6.756,7.722,6.756a15.717,15.717,0,0,0,8.006-2.215l-.851,3.863a16.3,16.3,0,0,1-7.951,1.758c-5.676,0-10.844-3.634-10.844-10.221,0-8.176,6.189-14.877,13.4-14.877,5.621,0,9.256,3.41,9.256,8.861a14.606,14.606,0,0,1-.907,4.88Zm.627-3.063H88.835a6.71,6.71,0,0,0,.4-2.385c0-2.613-1.762-4.829-5.68-4.829-3.8,0-7.21,3.012-8.629,7.214" transform="translate(206.9 12.628)" fill="#4d4d4f"/>
      <path id="Path_162" data-name="Path 162" d="M82.122,8.166H77.581L78.428,4.7h8.065l-1.589,6.7c3.122-4.6,5.846-7.1,8.29-7.1a3.036,3.036,0,0,1,3.3,3.008,3.14,3.14,0,0,1-3.071,3.122,2.9,2.9,0,0,1-2.893-2.271c-1.817.907-5.621,4.541-6.93,9.993L80.872,28.893H76.9Z" transform="translate(226.231 12.672)" fill="#4d4d4f"/>
      <path id="Path_163" data-name="Path 163" d="M83.006,11.34h1.222l1.423-5.921h-1.92L83.4,6.775H82.178l.56-2.448h7.643l-.564,2.448H88.528l.363-1.356H87.007L85.584,11.34h1.19L86.51,12.5H82.773Zm6.682,0h1.159L92.5,5.486H91.272l.268-1.159h2.744l1.092,5.061,3.441-5.061h2.945L101.5,5.486h-1.222L99.148,11.34h1.226L100.11,12.5H96.633l.233-1.159h1.025l1.025-5.128-3.6,5.2h-.631l-1.19-5.2L92.068,11.34h1.056l-.26,1.159H89.423Z" transform="translate(241.761 12.73)" fill="#4d4d4f"/>
      <path id="Path_164" data-name="Path 164" d="M69.116,5.5a12.467,12.467,0,0,0-8.6-.792c-4.084,1.167-7.186,4.257-10,7.75l1.734,3.453c2.617-3.37,5.247-6.362,8.518-7.6a9.091,9.091,0,0,1,3.272-.615c3.489.272,6.118,2.882,6.118,7.111,0,5.968-4.04,10.982-9.291,11.16v-.012l-.1,0c-4.931-.059-7.143-4.021-9.468-8.8l.008-.008-1.892-3.765.012-.012c-2.3-4.407-5.274-8.534-10.978-9.145A13.212,13.212,0,0,0,35.184,4.2a12.843,12.843,0,0,0-3.54.848c-.095.039-.189.063-.288.1a4.43,4.43,0,0,0-.587.272,15.023,15.023,0,0,0-8.211,13.387c0,5.791,3.9,10.663,10.608,10.663.323,0,.639-.032.958-.055v.028a13.876,13.876,0,0,0,3.114-.355c4.462-1.005,7.77-4.111,10.738-7.7l-1.727-3.433c-.583.741-1.179,1.459-1.778,2.144h.008a15.431,15.431,0,0,1-5.574,4.655,10.681,10.681,0,0,1-1.667.706v-.035a10.638,10.638,0,0,1-4.411.528l.024-.024c-3.544-.229-6.22-2.846-6.22-7.068,0-4.793,2.594-8.944,6.272-10.533a1.385,1.385,0,0,1,.134-.071c.039-.02.087-.028.134-.047.2-.079.41-.146.623-.209.13-.039.26-.087.4-.122a8,8,0,0,1,.974-.181l.008,0c.1-.012.2-.016.307-.024a11.642,11.642,0,0,1,1.758-.039v0a9.225,9.225,0,0,1,1.9.248l.075.016v0c3.914.985,5.925,4.584,7.994,8.826l-.012.016,1.912,3.8-.008.008c2.381,4.573,5.487,8.842,11.668,8.889v.016c7.73-.213,13.458-7.151,13.458-14.656a10.417,10.417,0,0,0-5.109-9.3" transform="translate(66.364 12.097)" fill="#9fc694"/>
    </g>
  </g>
</svg>
