<svg xmlns="http://www.w3.org/2000/svg" width="166.553" height="158.383" viewBox="0 0 166.553 158.383">
  <g id="Group_110" data-name="Group 110" transform="translate(-55.469 -3611.983)">
    <path id="Path_171" data-name="Path 171" d="M30.874,65.344c5.708-29.7,31.147-54.219,61.041-58.8,27.975-4.994,58.019,7.728,73.928,31.269a74.542,74.542,0,0,1,11.779,27.529m1.522,15.1c.423,29.769-18.933,58.439-46.585,69.368a74.294,74.294,0,0,1-13.216,4.014m-15.094,1.522c-29.765.423-58.431-18.936-69.36-46.59a74.773,74.773,0,0,1-5.536-28.314" transform="translate(36.425 3608.568)" fill="none" stroke="#9fc694" stroke-linecap="round" stroke-width="4"/>
    <line id="Line_47" data-name="Line 47" x1="9.2" y1="5.436" transform="translate(204.846 3668.475)" fill="#afb42b" stroke="#9fc694" stroke-width="4"/>
    <line id="Line_48" data-name="Line 48" x1="9.2" y1="5.435" transform="translate(204.846 3668.475)" fill="none" stroke="#9fc694" stroke-linecap="round" stroke-linejoin="round" stroke-width="4"/>
    <line id="Line_49" data-name="Line 49" y1="9.308" x2="5.251" transform="translate(214.046 3664.604)" fill="#afb42b" stroke="#9fc694" stroke-width="4"/>
    <line id="Line_50" data-name="Line 50" y1="9.307" x2="5.251" transform="translate(214.046 3664.604)" fill="none" stroke="#9fc694" stroke-linecap="round" stroke-linejoin="round" stroke-width="4"/>
    <line id="Line_51" data-name="Line 51" y1="9.201" x2="5.434" transform="translate(155.766 3753.188)" fill="#afb42b" stroke="#9fc694" stroke-width="4"/>
    <line id="Line_52" data-name="Line 52" y1="9.201" x2="5.434" transform="translate(155.766 3753.188)" fill="none" stroke="#9fc694" stroke-linecap="round" stroke-linejoin="round" stroke-width="4"/>
    <line id="Line_53" data-name="Line 53" x2="9.306" y2="5.252" transform="translate(155.766 3762.389)" fill="#afb42b" stroke="#9fc694" stroke-width="4"/>
    <line id="Line_54" data-name="Line 54" x2="9.306" y2="5.252" transform="translate(155.766 3762.389)" fill="none" stroke="#9fc694" stroke-linecap="round" stroke-linejoin="round" stroke-width="4"/>
    <line id="Line_55" data-name="Line 55" x2="7.481" y2="7.63" transform="translate(65.777 3689.006)" fill="#afb42b" stroke="#9fc694" stroke-width="4"/>
    <line id="Line_56" data-name="Line 56" x2="7.481" y2="7.63" transform="translate(65.777 3689.006)" fill="none" stroke="#9fc694" stroke-linecap="round" stroke-linejoin="round" stroke-width="4"/>
    <line id="Line_57" data-name="Line 57" x1="7.48" y2="7.63" transform="translate(58.297 3689.006)" fill="#afb42b" stroke="#9fc694" stroke-width="4"/>
    <line id="Line_58" data-name="Line 58" x1="7.48" y2="7.63" transform="translate(58.297 3689.006)" fill="none" stroke="#9fc694" stroke-linecap="round" stroke-linejoin="round" stroke-width="4"/>
  </g>
</svg>
