<svg xmlns="http://www.w3.org/2000/svg" width="57.35" height="54.447" viewBox="0 0 57.35 54.447">
  <g id="Group_156" data-name="Group 156" transform="translate(-1375.586 -3573.631)">
    <text id="_80" data-name="80" transform="translate(1405 3604)" fill="#9fc694" font-size="25" font-family="Archer-Bold, Archer" font-weight="700"><tspan x="-14" y="0">80</tspan></text>
    <text id="_" data-name="%" transform="translate(1405 3616)" fill="#9fc694" font-size="15" font-family="Archer-Bold, Archer" font-weight="700"><tspan x="-5" y="0">%</tspan></text>
    <g id="Group_155" data-name="Group 155" transform="translate(1318.703 -39.388)">
      <path id="Path_171" data-name="Path 171" d="M29.868,25.765a25.393,25.393,0,0,1,49.742,0m.516,5.117A25.482,25.482,0,0,1,64.335,54.395a25.183,25.183,0,0,1-4.48,1.361m-5.116.516a25.367,25.367,0,0,1-25.387-25.39" transform="translate(31.48 3608.568)" fill="none" stroke="#9fc694" stroke-linecap="round" stroke-width="2"/>
      <line id="Line_47" data-name="Line 47" x1="3.118" y1="1.842" transform="translate(107.972 3632.49)" fill="#afb42b" stroke="#9fc694" stroke-width="2"/>
      <line id="Line_48" data-name="Line 48" x1="3.118" y1="1.842" transform="translate(107.972 3632.49)" fill="none" stroke="#9fc694" stroke-linecap="round" stroke-linejoin="round" stroke-width="2"/>
      <line id="Line_49" data-name="Line 49" y1="3.155" x2="1.78" transform="translate(111.09 3631.177)" fill="#afb42b" stroke="#9fc694" stroke-width="2"/>
      <line id="Line_50" data-name="Line 50" y1="3.155" x2="1.78" transform="translate(111.09 3631.177)" fill="none" stroke="#9fc694" stroke-linecap="round" stroke-linejoin="round" stroke-width="2"/>
      <line id="Line_51" data-name="Line 51" y1="3.119" x2="1.842" transform="translate(91.336 3661.204)" fill="#afb42b" stroke="#9fc694" stroke-width="2"/>
      <line id="Line_52" data-name="Line 52" y1="3.119" x2="1.842" transform="translate(91.336 3661.204)" fill="none" stroke="#9fc694" stroke-linecap="round" stroke-linejoin="round" stroke-width="2"/>
      <line id="Line_53" data-name="Line 53" x2="3.154" y2="1.78" transform="translate(91.336 3664.323)" fill="#afb42b" stroke="#9fc694" stroke-width="2"/>
      <line id="Line_54" data-name="Line 54" x2="3.155" y2="1.78" transform="translate(91.336 3664.323)" fill="none" stroke="#9fc694" stroke-linecap="round" stroke-linejoin="round" stroke-width="2"/>
      <line id="Line_55" data-name="Line 55" x2="2.536" y2="2.586" transform="translate(60.832 3639.449)" fill="#afb42b" stroke="#9fc694" stroke-width="2"/>
      <line id="Line_56" data-name="Line 56" x2="2.536" y2="2.586" transform="translate(60.832 3639.449)" fill="none" stroke="#9fc694" stroke-linecap="round" stroke-linejoin="round" stroke-width="2"/>
      <line id="Line_57" data-name="Line 57" x1="2.535" y2="2.586" transform="translate(58.297 3639.449)" fill="#afb42b" stroke="#9fc694" stroke-width="2"/>
      <line id="Line_58" data-name="Line 58" x1="2.535" y2="2.586" transform="translate(58.297 3639.449)" fill="none" stroke="#9fc694" stroke-linecap="round" stroke-linejoin="round" stroke-width="2"/>
    </g>
  </g>
</svg>
